<svg width="201" height="201" viewBox="0 0 201 201" fill="none" xmlns="http://www.w3.org/2000/svg">
<path d="M73.5801 178.45C51.6912 179.643 15.5248 182.444 15.4537 184.121C15.3835 185.769 21.6 183.05 63.6429 180.399C66.4073 180.224 69.2148 180.069 72.0483 179.927C72.4648 179.506 72.9631 179.028 73.5801 178.45Z" fill="#2D3F71"/>
<path d="M121.508 177.423C121.789 177.763 122.08 178.12 122.395 178.518C122.46 178.601 122.514 178.675 122.579 178.757C155.367 178.677 182.207 179.652 182.832 179.355C186.342 177.691 151.852 177.283 121.508 177.424L121.508 177.423Z" fill="#2D3F71"/>
<path d="M165.189 49.6054C165.008 49.5901 164.775 49.5669 164.513 49.5398C164.777 52.8139 164.997 56.6012 165.195 60.3405C165.028 73.2372 167.002 130.375 163.049 130.966C152.318 132.571 113.951 134.325 109.168 134.603C87.736 135.848 47.1336 136.097 25.4802 134.316C18.7802 133.765 19.4826 134.154 19.3109 129.975C16.3155 57.1457 19.9481 43.6868 19.9635 42.6587C19.9812 41.4517 20.2556 38.9977 20.6915 37.8441C20.8629 37.3905 21.1267 37.0296 21.6984 36.9506C23.1747 36.7474 21.6633 36.3467 33.8088 35.3529C60.9362 33.1304 103.069 30.524 136.08 32.4718C135.41 29.6452 135.333 26.6864 135.844 23.7906C94.7784 21.7582 26.2363 24.1205 15.2985 30.1871C13.2276 31.3354 12.7792 32.933 12.1434 34.7052C6.86131 49.4429 9.28903 135.703 12.655 150.19C13.4146 153.461 13.8388 155.225 15.7336 156.597C18.0245 158.257 24.6184 159.087 25.8676 159.134C26.7427 159.166 29.815 159.812 33.5107 160.276C36.488 160.649 41.3618 160.875 41.4999 160.893C50.7439 162.004 61.724 162.014 78.9647 162.188C79.4757 162.193 79.4235 162.132 79.2519 164.523C78.6018 173.565 79.2073 173.711 78.1142 174.27C70.7899 181.001 71.6179 180.141 68.1737 184.645C67.1783 185.947 65.9149 187.84 66.0042 189.341C66.0542 190.176 66.1497 192.884 66.4972 193.593C67.8378 196.325 91.8962 195.247 95.3043 195.004C102.674 194.478 119.916 194.337 126.348 192.85C126.957 192.709 127.319 192.36 127.521 191.784C127.891 190.735 128.204 187.541 127.685 186.557C126.685 184.662 125.292 182.192 122.393 178.518C115.226 169.438 116.779 176.06 115.762 168.768C114.705 161.185 114.774 161.581 115.126 161.587C114.9 161.594 150.576 159.807 164.72 156.348C167.114 155.762 169.387 155.161 170.693 152.66C175.63 143.203 176.019 76.5155 174.079 48.5181C171.809 49.1411 171.379 49.1566 165.187 49.6055L165.189 49.6054ZM116.511 179.071C116.803 179.88 116.999 179.9 117.314 179.872C118.164 179.797 117.451 178.078 116.662 174.272C120.125 177.276 123.903 182.87 126.194 186.12C127.033 187.309 124.81 187.164 110.935 188.079C110.743 188.092 74.3033 189.91 68.6877 189.176C66.2235 188.854 66.1201 189.301 72.0734 181.713C73.7837 179.532 77.723 175.913 78.5361 175.381C78.9153 175.134 78.5556 175.783 78.3661 180.202C78.3403 180.814 78.8751 181.322 79.0346 180.909C80.2971 177.634 80.768 165.682 80.604 165.682C80.5916 162.159 80.4657 162.187 80.8947 162.184C95.8325 162.094 81.8936 162.729 106.894 161.942C113.129 161.747 110.981 161.881 113.129 161.706C113.422 161.682 113.328 161.87 113.446 163.047C114.126 169.823 115.85 177.23 116.512 179.07L116.511 179.071ZM169.773 151.37C168.657 154.257 166.779 154.658 158.417 156.428C153.226 157.527 121.049 159.886 121.025 159.888C117.797 160.184 92.5374 160.939 92.5363 160.903C47.5535 161.061 38.5946 159.102 29.3298 158.049C18.8456 156.856 15.8228 156.93 14.5883 152.245C14.0014 150.017 13.0372 146.247 12.9761 143.944C12.9436 142.681 12.6959 142.205 13.0765 142.357C17.5548 144.135 82.4751 144.406 112.104 143.269C127.477 142.679 123.842 142.439 136.812 141.851C163.957 140.62 168.402 138.922 171.83 138.904C171.927 142.271 170.794 148.725 169.771 151.371L169.773 151.37Z" fill="#2D3F71"/>
<path d="M118.133 62.2664C117.687 57.787 116.096 49.7395 110.454 45.5924C110.798 44.8641 110.499 43.9842 109.779 43.6167C107.23 42.3177 98.2412 38.2453 89.6846 40.3715C81.5987 42.3799 76.2398 47.2648 74.3109 49.2716C73.7111 49.8968 73.7636 50.8936 74.4186 51.4533C74.5098 51.5309 74.6061 51.6126 74.7044 51.6963C72.157 56.1133 71.7006 61.6969 73.2482 69.2345C73.352 69.7391 73.3845 69.904 73.5779 70.0043C73.7983 70.1196 74.0458 69.9877 74.3713 69.8446C74.8226 69.647 74.803 69.465 74.6772 68.9685C73.4744 64.1907 73.4778 56.9036 75.8498 52.6452C76.5808 53.2307 77.4274 53.0927 77.9365 52.5569C79.5894 50.8171 84.2217 46.6337 91.5122 45.351C98.8357 44.0633 105.311 46.5855 107.754 47.7289C108.499 48.0763 109.367 47.7742 109.732 47.0399L109.752 46.9998C113.882 50.3723 116.403 57.1005 116.473 61.8853C116.485 62.6962 116.941 62.6276 117.905 62.5392C118.042 62.5267 118.144 62.4044 118.131 62.2654L118.133 62.2664ZM108.179 46.8244C105.65 45.6403 98.9481 43.0299 91.3407 44.3676C83.7574 45.7014 78.9347 50.0584 77.2131 51.8694C77.0357 52.0561 76.7408 52.0771 76.5402 51.9158C76.0859 51.5534 75.5192 51.0764 75.0689 50.692C74.8492 50.5047 74.8321 50.1718 75.0333 49.9631C79.9394 44.8588 87.6841 40.7895 94.7641 40.7646C101.321 40.7415 107.339 43.4943 109.326 44.5063C109.57 44.6305 109.669 44.9301 109.547 45.1735L108.841 46.593C108.719 46.8375 108.43 46.9385 108.18 46.8224L108.179 46.8244Z" fill="#2D3F71"/>
<path d="M48.7232 94.2641C48.5768 95.0046 48.0294 94.8965 47.8616 94.3741C47.1022 92.0128 47.4332 91.1416 45.2625 89.5372C45.0289 89.365 43.926 88.5319 43.7919 88.2394C43.6236 87.873 44.0264 87.5056 44.3278 87.6445C47.3017 89.021 49.3569 91.0478 48.7232 94.2641Z" fill="#2D3F71"/>
<path d="M111.493 67.6556C111.266 72.8384 111.301 73.3563 106.539 74.4761C100.828 75.8182 101.187 75.0339 100.07 72.2318C99.0791 69.7443 99.4616 69.03 98.8878 68.814C98.4783 68.6604 98.5519 68.2682 97.3786 68.1733C94.9649 67.9788 94.3261 68.624 92.839 70.0193C92.6666 70.1809 92.7445 71.2876 92.76 71.4326C92.971 73.4118 92.818 74.2774 92.7491 75.4406C92.6368 77.325 90.5651 77.7133 88.5589 77.9354C84.8763 78.3434 83.2919 79.37 81.7166 75.0225C81.1531 73.4684 79.5587 69.366 80.9827 68.528C83.0245 67.3268 89.0168 65.9797 89.2597 65.9399C93.5033 65.2539 92.0264 68.4071 92.841 67.7343C96.0387 65.095 97.9748 66.8082 98.359 66.6018C98.5577 66.4951 97.8703 64.7005 99.7388 63.984C100.839 63.5621 101.498 63.4168 106.149 62.7204C111.389 61.9359 111.248 62.7804 111.493 67.6556ZM109.807 67.5935C109.624 63.4611 110.152 63.9593 106.935 64.2746C106.911 64.2767 101.307 65.0444 100.548 65.3511C100.022 65.563 100.15 65.9095 100.43 67.0075C101.248 70.1997 101.958 73.6242 103.146 73.401C108.044 72.4818 107.668 72.4361 108.692 72.1075C109.582 71.8213 109.499 71.0826 109.807 67.5935ZM91.0403 72.3606C91.0005 71.0058 91.2081 71.456 90.6692 67.7939C90.5841 67.2142 90.1076 67.0489 82.4828 69.4167C81.8955 69.5988 81.6567 69.6627 81.9249 70.5627C83.7505 76.6853 84.0867 77.0491 86.3801 76.5671C91.3844 75.5134 91.1732 76.8942 91.0403 72.3606Z" fill="#2D3F71"/>
<path d="M102.645 90.4562C101.687 92.3225 99.5745 92.739 98.8339 92.2826C98.3088 91.9584 98.7396 91.6239 99.3342 91.5208C101.939 91.0696 102.586 87.8963 102.367 85.2621C101.669 85.8506 99.8105 88.2061 96.4486 87.647C95.9302 87.5608 95.3931 86.6607 96.9542 86.7002C98.7094 86.745 100.589 85.7984 101.419 84.1884C101.874 83.3058 101.893 82.8088 102.572 82.7084C104.285 82.4543 103.923 87.9676 102.645 90.4562Z" fill="#2D3F71"/>
<path d="M95.8719 70.8115C96.6534 70.9598 95.752 72.262 95.6573 76.0543C95.6364 76.9114 95.7664 77.769 96.0262 78.582C97.0323 81.7315 100.75 78.2004 101.894 78.3834C104.04 78.7258 96.0811 84.7939 94.4874 78.9185C93.92 76.8275 94.9363 70.6348 95.8729 70.8125L95.8719 70.8115Z" fill="#2D3F71"/>
<path d="M104.373 58.1348C104.741 58.8255 103.856 59.1886 103.32 59.0435C101.926 58.6644 100.645 58.3649 99.3858 58.5614C98.8391 58.6463 98.2231 58.0814 98.6601 57.5139C99.5082 56.4119 103.72 56.9071 104.373 58.1348Z" fill="#2D3F71"/>
<path d="M86.7599 59.1407C87.7637 59.0812 87.8943 59.8057 87.2979 60.2668C86.2806 61.0534 85.6382 60.9357 84.1819 62.5428C83.8153 62.9481 83.5155 63.2881 83.0355 63.0038C81.7107 62.2185 84.5314 59.2725 86.7599 59.1407Z" fill="#2D3F71"/>
<path d="M105.264 69.0046C105.248 67.7686 103.988 67.323 103.333 68.2993C102.91 68.9248 103.28 70.2495 104.237 70.2462C104.83 70.2441 105.348 69.6843 105.264 69.0046Z" fill="#2D3F71"/>
<path d="M87.1226 71.2139C86.9173 71.6946 87.0874 72.576 87.4476 72.8967C87.8538 73.2593 88.5388 73.2379 88.8109 72.7129C89.7088 70.9848 87.683 69.8899 87.1226 71.2139Z" fill="#2D3F71"/>
<path d="M155.833 122.082L155.091 123.059C159.438 126.687 161.165 128.98 161.894 128.575C162.77 128.088 159.112 124.797 155.833 122.082Z" fill="#2D3F71"/>
<path d="M142.637 112.972C128.682 105.496 115.474 104.126 115.09 100.739C115.086 100.714 114.708 98.8217 114.631 97.5499C114.456 94.6185 114.808 94.6743 115.444 89.05C115.465 88.8719 116.069 83.5868 116.184 83.4494C116.191 83.4414 117.89 83.0564 118.248 82.9621C118.938 82.7807 119.603 82.5023 120.335 82.4868C120.523 82.4821 120.715 82.3724 120.893 82.2868C124.941 80.3405 124.46 78.7722 124.279 73.7108C124.279 73.6868 123.808 69.3025 123.703 68.8518C123.302 67.1332 122.967 65.4804 121.934 64.215C120.579 62.5548 119.702 62.2269 118.826 62.043C118.096 61.8895 115.973 61.589 115.253 61.7865C113.944 62.1461 115.394 58.357 111.36 53.0282C107.055 47.3423 101.083 47.1343 96.941 46.6199C96.6909 46.5888 96.4292 46.6807 96.1712 46.6926C95.7143 46.7152 95.4712 46.4081 95.4193 46.1413C94.5535 41.6503 94.9903 41.6038 94.8296 39.6933C94.7628 38.8985 93.9811 38.9853 93.404 39.5363C91.5283 41.3279 91.7719 41.2081 90.6931 42.9819C90.1155 43.9319 90.1363 43.5919 90.1839 38.9487C90.1937 38.0136 89.455 37.8252 88.9714 38.2369C88.3781 38.742 87.7418 39.2003 87.1787 39.7362C85.9897 40.8664 84.4562 42.7338 84.2153 44.7437C84.0745 45.9222 83.7882 47.5392 84.3752 49.2442C84.6793 50.1271 84.4967 49.3927 81.9134 51.3078C80.2757 52.5226 78.3751 54.9093 78.1174 55.2842C72.5956 63.3057 76.8974 67.7956 75.8197 68.1694C74.0459 68.7857 73.3177 69.0492 72.3316 69.5567C69.2582 71.1365 69.0204 75.1894 69.7775 78.6147C70.3638 81.2677 71.1658 84.9489 72.3156 87.1699C74.6284 91.6377 81.4612 88.1587 82.0795 89.3965C83.8017 92.8425 85.0636 94.818 88.1508 97.1232C88.5959 97.4556 88.9864 97.8702 89.53 98.0653C89.6813 98.1198 89.6867 98.2448 89.6303 98.411C88.213 102.596 89.027 102.316 87.9787 102.502C78.4296 104.196 59.375 110.302 52.8125 114.439C48.6986 117.033 48.7708 117.092 48.8038 116.789C49.0063 114.96 50.3153 107.282 51.4007 104C51.4482 103.855 52.8248 99.7656 53.2514 99.3671C58.1424 94.7948 57.7393 95.8962 60.6973 88.2258C62.1133 84.5538 62.5016 84.0694 62.4196 83.1987C62.3053 81.9851 60.9511 82.2228 60.1243 83.1168C58.2195 85.1755 57.9202 86.5185 57.087 87.8595C56.8851 88.1842 56.662 88.163 55.9554 88.2685C55.5406 88.3309 55.7562 87.9282 55.6499 87.2685C54.7921 81.9365 57.1827 80.1171 58.604 73.1071C58.8134 72.0773 57.3752 70.6064 56.0591 72.554C52.7234 77.4878 51.8254 82.88 51.1338 82.1334C51.0585 82.0517 50.9801 81.9359 50.9767 81.833C50.9381 80.5161 51.3344 76.9067 51.3393 76.8817C51.5045 76.1081 51.7541 70.5882 51.1646 69.6002C50.4514 68.4027 49.2301 68.875 48.8034 70.1035C47.1076 74.9905 47.6817 73.8955 46.6362 80.2722C46.597 80.5114 46.5212 80.5696 46.2213 80.6057C46.0204 80.6294 45.8563 80.602 45.8015 80.3762C44.3446 74.4433 45.1713 72.3463 43.5951 71.1829C42.9445 70.7032 42.0101 70.8765 41.7649 71.6813C40.9098 74.4864 41.5304 76.3612 41.9228 80.4518C42.0962 82.2632 42.0901 82.2473 41.8844 82.347C41.4162 82.5736 41.4251 82.2496 37.6674 76.3688C36.7594 74.948 35.696 75.1187 35.3438 75.913C34.6582 77.4544 37.4722 83.1315 38.3997 84.4003C38.9252 85.1194 38.8457 85.5577 39.0731 87.9359C39.7574 95.1185 42.4912 97.0319 42.2173 97.6539C42.0021 98.1427 41.925 98.6839 41.6025 99.1341C38.5276 103.424 39.7605 102.536 33.4067 108.576C30.7008 111.149 24.666 116.331 22.0604 120.986C21.7304 121.574 22.1817 121.942 22.7293 121.522C22.7911 121.474 23.8793 120.386 24.3255 119.884C34.7513 108.169 38.408 108.069 43.2579 98.0932C43.6808 97.2227 43.2981 96.4531 42.7423 95.652C40.8065 92.8628 40.6757 89.8153 40.4985 88.6189C39.8307 84.1132 38.4665 82.923 36.2372 77.1788C35.9526 76.4448 36.3944 76.0943 36.5761 76.3056C37.3172 77.174 36.6789 76.2423 38.955 79.9653C41.2955 83.7931 41.1276 83.8147 42.6771 83.0902C44.0668 82.4403 41.7177 75.0345 42.5971 72.0104C42.6998 71.659 42.7937 71.6337 43.0974 71.8116C44.3429 72.5403 44.0901 78.5592 45.0061 81.105C45.1677 81.5544 45.6391 81.6728 46.101 81.6321C46.4119 81.605 46.7134 81.469 47.0171 81.3739C47.2408 81.3041 47.3973 81.1546 47.4645 80.9273C48.1226 78.699 48.9084 69.8212 50.0729 70.2431C51.2404 70.666 50.4175 74.9519 49.9948 80.1724C49.7792 82.8392 49.6945 82.9185 51.6347 83.2497C52.2841 83.3604 52.502 81.6236 56.3825 73.8059C56.8184 72.9273 57.4663 72.6121 57.4627 73.5941C57.4562 75.4211 54.1542 81.3908 54.2501 85.6385C54.2526 85.7664 54.2391 85.6415 54.7044 88.2849C54.8218 88.9485 54.4632 88.2237 51.7473 90.5253C50.4392 91.6339 50.4956 92.6057 51.0464 92.2598C51.6391 91.8887 52.2469 91.5355 52.8014 91.1136C56.2891 88.4603 57.243 90.144 58.085 88.438C59.3768 85.8204 59.7461 85.3511 61.1212 83.6543C61.169 83.5951 61.293 83.5967 61.3809 83.5703C61.5519 84.1527 60.4504 86.2686 59.7175 88.2982C56.4276 97.4059 52.7605 96.8338 51.648 100.093C50.4731 103.535 49.7581 105.24 47.9622 114.632C47.9563 114.66 44.5501 133.369 44.5405 133.76C44.522 134.473 45.0627 134.671 45.3701 133.939C45.8164 132.874 46.7817 128.431 46.9667 127.578C48.0295 122.676 48.1587 118.774 48.764 118.275C54.7347 113.35 72.5077 107.916 79.9905 105.585C80.6788 105.371 80.2612 105.771 81.4845 107.562C88.1318 117.292 94.1915 120.054 100.691 123.152C101.262 123.424 102.223 123.827 103.186 123.22C105.075 122.03 109.289 118.135 112.538 115.472C120.767 108.732 120.61 105.544 121.435 105.815C128.925 108.269 135.252 110.563 141.576 113.97L142.636 112.971L142.637 112.972ZM119.222 63.4526C123.581 65.5332 122.745 76.2652 123.133 76.3039C122.868 78.7448 123.051 80.1032 121.016 80.7824C120.674 80.8966 121.374 80.6151 120.449 72.7153C120.039 69.2087 120.156 67.5883 119.415 65.0449C119.093 63.941 118.307 63.0158 119.222 63.4526ZM116.1 63.1666C118.028 63.2388 118.598 65.0318 119.578 77.5954C119.626 78.2182 119.555 78.8585 119.614 78.8583C119.622 81.2203 119.632 81.0902 116.465 81.8844C116.289 81.928 116.244 81.8542 116.25 81.7121C117.055 61.7222 112.355 63.0267 116.1 63.1666ZM73.0236 85.4624C71.5803 81.6904 69.0172 72.2764 72.5504 70.9249C72.5591 71.1279 72.5824 70.9308 72.4521 71.6783C71.8983 74.8553 76.127 88.1264 76.1281 88.1504C74.3499 88.0967 73.7503 87.3628 73.0236 85.4624ZM79.0963 87.934C76.9405 88.2526 76.7919 86.1011 75.5399 80.9985C72.9933 70.6154 72.8743 70.3228 76.6611 69.4015C77.2865 69.2493 77.0835 69.231 77.3036 70.6812C79.0276 82.0312 80.1853 83.6701 81.2205 87.3985C81.3359 87.8151 81.1853 87.6246 79.0963 87.934ZM119.589 105.558C113.603 113.085 109.954 116.425 102.247 122.177C102.041 122.33 101.873 122.355 101.644 122.248C91.3403 117.448 87.9866 114.112 82.7993 107.213C81.1817 105.062 81.2513 105.237 81.7828 105.102C86.4607 103.911 88.8074 103.85 89.1466 103.324C89.6916 102.481 90.4206 100.796 90.6892 100.087C90.8982 99.5345 90.9972 98.9392 91.1251 98.3587C91.2048 97.9954 91.0818 97.7099 90.768 97.476C83.5019 92.0725 81.8371 86.1413 78.8535 73.1978C77.2885 66.4062 78.6379 62.2364 81.4148 58.7997C83.0118 56.824 84.159 55.718 86.2154 54.4107C87.5783 53.5439 87.6875 53.2985 88.0608 53.4012C90.6112 54.1022 93.8743 52.9637 96.1677 51.6457C97.0489 51.1396 100.244 51.6083 101.224 51.8769C109.191 54.0588 112.547 59.536 114.126 66.6865C115.964 75.0141 114.988 80.1496 114.484 84.7334C113.697 91.8822 112.667 92.9058 113.08 98.1334C113.475 103.124 114.507 103.333 116.816 104.212C119.65 105.291 119.951 105.101 119.588 105.557L119.589 105.558Z" fill="#2D3F71"/>
<path d="M60.5106 115.297C52.7291 117.457 50.7929 127.351 57.1965 132.044C62.432 135.882 70.2326 133.47 72.2735 127.46C74.8735 119.803 67.8944 113.247 60.5106 115.297ZM64.1536 132.632C52.7909 133.576 50.8552 118.623 61.2586 116.169C64.9106 115.307 69.4215 116.965 71.3002 121.429C73.4371 126.504 69.4571 132.191 64.1536 132.632Z" fill="#2D3F71"/>
<path d="M121.621 113.161C116.969 113.846 113.174 118.163 113.558 123.376C114.235 132.592 126.785 135.181 131.604 127.295C135.62 120.722 130.632 111.836 121.621 113.161ZM125.309 130.546C119.237 132.047 113.922 126.94 114.59 121.593C115.223 116.521 120.201 113.183 125.147 114.258C134.251 116.236 134.246 128.338 125.309 130.546Z" fill="#2D3F71"/>
<path d="M155.011 116.284C149.538 107.486 135.18 112.765 137.139 123.257C139.142 133.983 155.979 133.458 156.425 121.021C156.271 119.635 156.226 118.238 155.011 116.284ZM148.038 129.568C142.822 130.481 137.871 126.1 137.954 121.727C138.127 112.502 149.957 109.836 154.25 117.087C157.47 122.525 153.894 128.543 148.038 129.568Z" fill="#2D3F71"/>
<path d="M55.6543 124.901C55.7362 126.298 55.8096 127.269 57.1363 127.734C58.532 128.225 60.5594 127.756 60.9716 126.394C61.3047 125.294 60.6608 125.029 61.209 124.792C61.6443 124.604 62.1862 124.302 63.5861 124.265C65.3098 124.455 65.5195 124.36 65.5248 125.012C65.5334 126.054 65.3503 126.588 66.125 127.067C66.8335 127.505 68.126 127.64 69.4649 127.032C70.8138 126.42 71.5257 123.552 69.363 121.953C64.6076 118.438 55.4298 121.078 55.6553 124.9L55.6543 124.901ZM69.7315 124.931C69.5677 126.114 68.3008 126.143 67.1856 126.088C65.8553 126.023 68.4763 123.171 63.557 123.108C62.533 123.094 60.6231 123.426 60.0365 124.373C59.8127 124.734 59.8762 125.428 59.8956 125.836C59.94 126.793 58.3611 126.836 57.4531 126.533C56.7102 126.286 56.1819 125.055 57.168 123.389C57.2445 123.26 58.52 122.252 59.3182 122.029C61.1225 121.526 62.7234 121.223 65.5902 121.452C67.6628 121.617 70.0143 122.886 69.7315 124.931Z" fill="#2D3F71"/>
<path d="M127.292 120.978C126.855 120.817 126.514 121.431 126.533 121.76C126.649 123.755 126.697 123.127 126.469 124.297C126.117 126.107 123.417 125.543 122.739 125.708C122.052 125.874 121.443 125.669 120.822 125.452C119.358 124.941 119.869 121.48 119.295 121.269C118.9 121.124 118.491 121.437 118.505 121.89C118.513 122.147 118.569 122.403 118.6 122.659C118.883 125.058 118.723 126.748 122.168 126.95C122.567 126.973 122.57 126.928 122.586 127.29C122.606 127.733 122.695 127.965 122.37 127.965C121.5 127.965 120.953 127.906 120.249 128.191C119.94 128.316 119.876 128.858 120.284 128.966C120.768 129.095 120.654 129.067 123.273 129.058C123.272 128.94 125.887 129.271 126.469 128.825C126.975 128.438 126.45 127.921 125.939 127.93C125.043 127.949 124.189 127.973 124.18 127.855C124.112 126.864 124.175 126.897 124.366 126.852C126.919 126.258 127.939 125.888 127.644 121.422C127.629 121.191 127.48 121.045 127.294 120.977L127.292 120.978Z" fill="#2D3F71"/>
<path d="M122.079 124.787C126.913 126.298 125.244 120.563 125.605 120.561C125.596 118.251 125.654 118.101 125.335 117.054C124.95 115.789 123.044 115.436 122.057 115.961C120.756 116.654 120.813 117.526 120.799 121.175C120.792 122.967 120.75 124.372 122.08 124.788L122.079 124.787ZM122.768 116.793C124.435 116.525 124.398 117.477 124.642 119.997C124.452 123.612 124.657 123.816 123.307 123.859C121.389 123.919 122.181 122.94 121.853 119.593C121.75 118.547 121.731 116.959 122.768 116.793Z" fill="#2D3F71"/>
<path d="M153.15 118.673C152.59 118.142 152.125 118.693 150.647 119.824C150.163 120.194 150.563 118.879 149.431 118.482C149.258 118.42 149.364 118.324 149.398 118.251C149.664 117.683 149.823 117.123 149.669 116.469C148.907 113.229 144.295 115.105 145.669 118.093C145.783 118.342 145.774 118.346 145.531 118.376C144.914 118.455 144.906 118.452 145.092 117.871C145.448 116.757 144.895 115.492 143.561 115.137C142.297 114.802 140.972 115.937 140.951 117.346C140.933 118.573 141.802 118.693 141.248 118.911C140.813 119.083 140.474 119.296 140.388 119.752C140.114 121.183 140.336 124.254 140.547 124.806C140.729 125.279 141.037 125.666 141.564 125.714C142.515 125.802 143.466 125.948 144.428 125.746C144.858 125.656 150.041 126.198 150.284 124.985C150.579 123.511 150.498 123.601 150.813 123.765C153.876 125.361 153.525 125.412 153.513 122.002C153.537 122.002 153.627 119.126 153.15 118.673ZM147.584 115.592C148.194 115.584 148.793 116.202 148.799 116.846C148.806 117.471 148.232 118.104 147.647 118.069C145.669 117.95 146.322 115.61 147.584 115.592ZM144.179 117.198C144.203 118.476 141.927 118.773 141.92 117.18C141.915 115.649 144.146 115.507 144.179 117.198ZM149.319 123.284C149.303 124.382 149.41 124.386 148.585 124.554C148.317 124.609 143.148 124.72 142.063 124.634C141.415 124.582 141.417 123.603 141.363 122.346C141.267 120.128 141.242 119.93 141.912 119.703C142.862 119.381 146.137 119.421 146.137 119.445C149.335 119.434 149.073 119.317 149.253 119.955C149.548 121.001 149.35 121.156 149.319 123.283L149.319 123.284ZM152.555 122.319C152.56 123.805 152.814 123.732 150.978 122.742C150.519 122.495 150.451 122.275 150.465 121.736C150.476 121.287 150.629 120.997 151.009 120.764C151.899 120.218 152.372 119.475 152.421 120.175C152.573 122.317 152.594 122.316 152.555 122.319Z" fill="#2D3F71"/>
<path d="M182.795 10.6455C175.763 5.41318 162.841 4.07167 154.314 5.9207C131.533 10.8629 129.069 37.8408 146.429 46.5637C148.278 47.4932 148.365 47.3629 148.245 47.6853C147.652 49.2884 144.776 55.8636 143.583 57.3808C141.454 60.0903 152.402 58.2038 159.033 50.2774C159.681 49.5031 163.456 50.0428 164.756 50.1502C171.531 49.6594 171.4 49.6898 174.339 48.8715C191.987 43.9593 197.631 21.6843 182.794 10.6445L182.795 10.6455ZM174.358 46.8154C170.047 47.9716 171.715 47.7997 166.613 48.3597C159.847 49.1025 159.795 47.8717 158.474 49.1273C155.383 52.0652 154.336 52.8769 150.147 55.1337C148.762 55.8806 146.259 56.8334 145.471 56.8442C145.727 56.2002 146.304 55.9972 148.574 50.5372C150.445 46.0366 149.894 46.9145 147.055 45.0685C143.461 42.7311 140.491 40.6106 138.335 35.7991C134.158 26.4808 137.103 9.26132 159.599 7.3661C160.815 7.26382 162.034 7.21253 163.251 7.13824C163.261 7.39021 166.121 6.99614 169.569 7.718C171.452 8.11137 170.521 7.68865 172.617 8.25527C175.224 8.9601 178.811 9.78047 182.445 12.8077C195.337 23.5474 189.834 42.6659 174.359 46.8164L174.358 46.8154Z" fill="#2D3F71"/>
<path d="M162.638 26.3864C160.929 26.3854 159.884 28.0321 159.902 29.251C159.954 32.8399 165.341 33.0099 165.424 29.0496C165.457 27.4514 164.21 26.3868 162.639 26.3864L162.638 26.3864Z" fill="#2D3F71"/>
<path d="M151.994 26.2681C150.471 26.1925 149.187 27.825 149.173 29.131C149.157 30.5601 150.435 31.9056 151.867 31.8366C155.195 32.0509 156.026 26.4689 151.995 26.2681L151.994 26.2681Z" fill="#2D3F71"/>
<path d="M172.947 26.0624C171.474 25.9336 170.233 27.6 170.238 28.926C170.245 30.371 171.549 31.6254 172.97 31.6244C176.466 31.6201 176.939 25.9824 172.946 26.0634L172.947 26.0624Z" fill="#2D3F71"/>
</svg>
