<svg width="40" height="40" viewBox="0 0 40 40" fill="none" xmlns="http://www.w3.org/2000/svg">
<rect width="40" height="40" rx="20" fill="#D9D9D9"/>
<path fill-rule="evenodd" clip-rule="evenodd" d="M32.5322 32.3184C30.8388 26.9634 26.2888 23.895 20.0438 23.895H19.9988C13.7372 23.86 9.16384 26.95 7.46717 32.3184L7.27051 32.9417L7.82717 33.2817C11.0905 35.2717 15.1605 36.28 19.9205 36.28C19.9738 36.28 20.0272 36.28 20.0788 36.28C24.9055 36.28 28.8622 35.2984 32.1722 33.2817L32.7288 32.9417L32.5322 32.3184Z" fill="#888080"/>
<path fill-rule="evenodd" clip-rule="evenodd" d="M19.9997 20.1814C24.538 20.1814 28.2314 16.4897 28.2314 11.9514C28.2314 7.41139 24.538 3.71973 19.9997 3.71973C15.4614 3.71973 11.7697 7.41139 11.7697 11.9514C11.7697 16.4897 15.4614 20.1814 19.9997 20.1814Z" fill="#888080"/>
</svg>
